<svg width="80" height="75" viewBox="0 0 80 75" fill="none" xmlns="http://www.w3.org/2000/svg">
<path d="M46.3025 42.5791C38.6384 34.9467 39.3449 22.2445 47.7969 15.5019C45.4295 13.2812 42.4789 11.7174 39.3469 10.888C38.6834 10.7121 38.0135 10.5565 37.3298 10.4886C37.2178 10.4742 37.1058 10.4599 36.9938 10.446C36.9542 10.441 36.9458 10.4509 36.9364 10.4262C36.9304 10.2091 36.9403 9.98222 36.9364 9.76321C36.9364 9.24395 36.9364 8.72517 36.9364 8.20591C36.9364 8.17816 36.9294 8.13951 36.9364 8.11226C36.9398 8.09789 36.9547 8.08352 36.9631 8.07113C38.0066 6.58022 38.1305 4.52743 37.1578 2.96963C35.7497 0.618062 32.5018 0.00960785 30.3494 1.72398C28.6653 3.01224 28.0925 5.46687 29.0359 7.36606C29.1607 7.62966 29.3228 7.8769 29.4947 8.11028C29.4992 8.88373 29.4922 9.6656 29.4947 10.4391C29.0626 10.4975 28.6127 10.5322 28.1822 10.6224C27.7863 10.7051 27.3928 10.7988 27.0024 10.9033C19.5969 12.8709 14.7739 18.3599 12.5437 25.5454C11.7866 27.9138 11.4705 30.3877 11.2792 32.8587C11.029 35.6944 10.8476 38.5399 10.4136 41.3553C9.87947 44.4625 9.2725 47.6608 7.72461 50.443C6.94521 51.7778 5.92501 53.0794 4.48018 53.7211C3.79492 54.0179 3.15129 54.3821 2.58297 54.8706C1.38539 55.8675 0.675357 57.3713 0.600043 58.9222C0.524234 60.4463 0.855713 62.3257 2.11127 63.3171C2.79008 63.8275 3.65421 63.8993 4.47473 63.9236C6.40959 63.9766 8.34545 64.0113 10.2813 64.0316C14.1704 64.0549 18.0589 64.0291 21.948 64.0351C33.3367 64.0252 44.7254 64.0524 56.1136 64.0306C58.0489 64.0088 59.9838 63.9702 61.9187 63.9176C63.804 63.9206 64.9297 63.2611 65.4995 61.3803C65.9712 59.8145 65.9063 58.0452 65.1621 56.5736C64.6557 55.5881 63.8392 54.7844 62.8938 54.2171C62.5727 54.0238 62.2368 53.8663 61.8939 53.7166C60.3822 53.0378 59.3332 51.6485 58.5439 50.2368C58.1272 49.4743 57.7883 48.6706 57.5009 47.8516C57.4851 47.8233 57.498 47.8382 57.4727 47.8303C57.3003 47.8055 57.1254 47.801 56.9519 47.7748C52.9524 47.2991 49.1416 45.4346 46.303 42.5791C44.6327 40.9088 47.9733 44.2494 46.303 42.5791H46.3025Z" fill="#5E5E6A"/>
<path d="M23.8723 66.8796C23.8723 71.0452 28.0443 74.4675 33.1914 74.4675C38.3385 74.4675 42.5104 71.0447 42.5104 66.8796H23.8728H23.8723Z" fill="#5E5E6A"/>
<path d="M69.26 39.797C74.8312 34.2258 74.8312 25.1931 69.26 19.6219C63.6888 14.0507 54.6561 14.0507 49.0849 19.6219C43.5137 25.1931 43.5137 34.2258 49.0849 39.797C54.6561 45.3683 63.6888 45.3683 69.26 39.797Z" fill="#63636C"/>
<path d="M59.2548 36.321C56.0646 36.321 54.1938 33.8595 54.1938 29.7044C54.1938 25.4706 56.0843 23.0681 59.2548 23.0681C62.4449 23.0681 64.3157 25.5297 64.3157 29.7044C64.3157 33.9186 62.4252 36.321 59.2548 36.321ZM59.2548 34.1943C60.8498 34.1943 61.7163 32.5992 61.7163 29.7044C61.7163 26.8097 60.8302 25.1949 59.2548 25.1949C57.64 25.1949 56.7735 26.79 56.7735 29.7044C56.7735 32.5598 57.6597 34.1943 59.2548 34.1943Z" fill="#F9FAFB"/>
</svg>
