<svg width="160" height="160" viewBox="0 0 160 160" fill="none" xmlns="http://www.w3.org/2000/svg">
<circle cx="80" cy="80" r="80" fill="#38383D"/>
<path d="M93.3025 79.5791C85.6384 71.9467 86.3449 59.2445 94.7969 52.5019C92.4295 50.2812 89.4789 48.7174 86.3469 47.888C85.6834 47.7121 85.0135 47.5565 84.3298 47.4886C84.2178 47.4742 84.1058 47.4599 83.9938 47.446C83.9542 47.441 83.9458 47.4509 83.9364 47.4262C83.9304 47.2091 83.9403 46.9822 83.9364 46.7632C83.9364 46.2439 83.9364 45.7252 83.9364 45.2059C83.9364 45.1782 83.9294 45.1395 83.9364 45.1123C83.9398 45.0979 83.9547 45.0835 83.9631 45.0711C85.0066 43.5802 85.1305 41.5274 84.1578 39.9696C82.7497 37.6181 79.5018 37.0096 77.3494 38.724C75.6653 40.0122 75.0925 42.4669 76.0359 44.3661C76.1607 44.6297 76.3228 44.8769 76.4947 45.1103C76.4992 45.8837 76.4922 46.6656 76.4947 47.4391C76.0626 47.4975 75.6127 47.5322 75.1822 47.6224C74.7863 47.7051 74.3928 47.7988 74.0024 47.9033C66.5969 49.8709 61.7739 55.3599 59.5437 62.5454C58.7866 64.9138 58.4705 67.3877 58.2792 69.8587C58.029 72.6944 57.8476 75.5399 57.4136 78.3553C56.8795 81.4625 56.2725 84.6608 54.7246 87.443C53.9452 88.7778 52.925 90.0794 51.4802 90.7211C50.7949 91.0179 50.1513 91.3821 49.583 91.8706C48.3854 92.8675 47.6754 94.3713 47.6 95.9222C47.5242 97.4463 47.8557 99.3257 49.1113 100.317C49.7901 100.827 50.6542 100.899 51.4747 100.924C53.4096 100.977 55.3454 101.011 57.2813 101.032C61.1704 101.055 65.0589 101.029 68.948 101.035C80.3367 101.025 91.7254 101.052 103.114 101.031C105.049 101.009 106.984 100.97 108.919 100.918C110.804 100.921 111.93 100.261 112.5 98.3803C112.971 96.8145 112.906 95.0452 112.162 93.5736C111.656 92.5881 110.839 91.7844 109.894 91.2171C109.573 91.0238 109.237 90.8663 108.894 90.7166C107.382 90.0378 106.333 88.6485 105.544 87.2368C105.127 86.4743 104.788 85.6706 104.501 84.8516C104.485 84.8233 104.498 84.8382 104.473 84.8303C104.3 84.8055 104.125 84.801 103.952 84.7748C99.9524 84.2991 96.1416 82.4346 93.303 79.5791C91.6327 77.9088 94.9733 81.2494 93.303 79.5791H93.3025Z" fill="#5E5E6A"/>
<path d="M70.8723 103.88C70.8723 108.045 75.0443 111.467 80.1914 111.467C85.3385 111.467 89.5104 108.045 89.5104 103.88H70.8728H70.8723Z" fill="#5E5E6A"/>
<path d="M116.26 76.797C121.831 71.2258 121.831 62.1931 116.26 56.6219C110.689 51.0507 101.656 51.0507 96.0849 56.6219C90.5137 62.1931 90.5137 71.2258 96.0849 76.797C101.656 82.3683 110.689 82.3683 116.26 76.797Z" fill="#63636C"/>
<path d="M106.255 73.321C103.065 73.321 101.194 70.8595 101.194 66.7044C101.194 62.4706 103.084 60.0681 106.255 60.0681C109.445 60.0681 111.316 62.5297 111.316 66.7044C111.316 70.9186 109.425 73.321 106.255 73.321ZM106.255 71.1943C107.85 71.1943 108.716 69.5992 108.716 66.7044C108.716 63.8097 107.83 62.1949 106.255 62.1949C104.64 62.1949 103.774 63.79 103.774 66.7044C103.774 69.5598 104.66 71.1943 106.255 71.1943Z" fill="#F9FAFB"/>
</svg>
