<svg width="277" height="130" viewBox="0 0 277 130" fill="none" xmlns="http://www.w3.org/2000/svg">
<rect width="277" height="130" rx="4" fill="#4C4C4C"/>
<path fill-rule="evenodd" clip-rule="evenodd" d="M125.559 52.009C125.011 51.5164 124.168 51.5608 123.676 52.1081C123.183 52.6555 123.227 53.4985 123.775 53.9911L149.333 76.9939V77.0001H149.34L150.441 77.9911C150.989 78.4838 151.832 78.4394 152.324 77.8921C152.817 77.3447 152.773 76.5017 152.225 76.009L151.936 75.749C152.393 75.1785 152.667 74.4546 152.667 73.6667V57.0001C152.667 54.7909 150.876 53.0001 148.667 53.0001H126.667V53.0063L125.559 52.009ZM129.623 55.6667L131.804 57.6303C131.991 57.5674 132.192 57.5333 132.4 57.5333C133.431 57.5333 134.266 58.369 134.266 59.3999C134.266 59.5395 134.251 59.6754 134.222 59.8062L137.607 62.8529L139.217 60.2772C139.575 59.7046 140.214 59.3699 140.888 59.4019C141.563 59.434 142.168 59.8278 142.47 60.4317L147.136 69.765C147.4 70.292 147.398 70.909 147.138 71.4307L149.937 73.9497C149.977 73.8638 150 73.7679 150 73.6667V57.0001C150 56.2637 149.403 55.6667 148.667 55.6667H129.623ZM131.186 65.1212L128.864 69.765C128.574 70.3437 128.605 71.0309 128.945 71.5812C129.285 72.1315 129.886 72.4665 130.533 72.4665H139.347L131.186 65.1212ZM126 59.0001C126 58.2637 125.403 57.6667 124.667 57.6667C123.93 57.6667 123.333 58.2637 123.333 59.0001V73.0001C123.333 75.2093 125.124 77.0001 127.333 77.0001H142.885C143.621 77.0001 144.218 76.4031 144.218 75.6667C144.218 74.9303 143.621 74.3334 142.885 74.3334H127.333C126.597 74.3334 126 73.7365 126 73.0001V59.0001Z" fill="#999999"/>
</svg>
