<svg width="42" height="42" viewBox="0 0 42 42" fill="none" xmlns="http://www.w3.org/2000/svg">
<circle cx="21" cy="21" r="21" fill="#F0F2F5"/>
<path d="M31.92 27.7813L26.7662 21.3325C26.5962 21.1283 26.3835 20.9638 26.1432 20.8504C25.9029 20.7371 25.6407 20.6776 25.375 20.6763C25.1074 20.6783 24.8439 20.7426 24.6055 20.8641C24.367 20.9856 24.1601 21.1609 24.0012 21.3763L23.6775 21.805L25.2175 24.0013C25.2902 24.0951 25.3431 24.2028 25.3729 24.3177C25.4027 24.4326 25.4088 24.5524 25.3908 24.6698C25.3729 24.7872 25.3312 24.8996 25.2684 25.0004C25.2055 25.1011 25.1228 25.188 25.0253 25.2558C24.9278 25.3236 24.8176 25.3708 24.7013 25.3946C24.5849 25.4184 24.465 25.4183 24.3487 25.3942C24.2324 25.3702 24.1223 25.3227 24.0249 25.2547C23.9276 25.1867 23.8451 25.0996 23.7825 24.9988L18.7775 17.85C18.6106 17.6808 18.4117 17.5464 18.1923 17.4548C17.973 17.3631 17.7377 17.316 17.5 17.3163C17.212 17.3231 16.9301 17.4 16.6786 17.5403C16.427 17.6805 16.2134 17.8799 16.0562 18.1213L9.75621 27.93C9.58671 28.1942 9.49139 28.4991 9.48023 28.8128C9.46908 29.1265 9.5425 29.4374 9.69281 29.713C9.84312 29.9886 10.0648 30.2186 10.3346 30.3791C10.6043 30.5395 10.9123 30.6245 11.2262 30.625H30.555C30.8846 30.6248 31.2074 30.5315 31.4863 30.3559C31.7653 30.1803 31.9889 29.9294 32.1315 29.6323C32.2742 29.3351 32.33 29.0037 32.2926 28.6763C32.2551 28.3488 32.126 28.0386 31.92 27.7813Z" fill="#98A2B3"/>
<path d="M24.5 18.375C26.433 18.375 28 16.808 28 14.875C28 12.942 26.433 11.375 24.5 11.375C22.567 11.375 21 12.942 21 14.875C21 16.808 22.567 18.375 24.5 18.375Z" fill="#98A2B3"/>
</svg>
