<svg width="161" height="160" viewBox="0 0 161 160" fill="none" xmlns="http://www.w3.org/2000/svg">
<path fill-rule="evenodd" clip-rule="evenodd" d="M73.6792 51.0151C76.8905 45.306 85.1103 45.306 88.3216 51.0151L111.759 92.6813C114.909 98.2808 110.862 105.2 104.438 105.2H57.5631C51.1386 105.2 47.0922 98.2808 50.2419 92.6813L73.6792 51.0151ZM85.2 92.6C85.2 94.9196 83.3196 96.8 81 96.8C78.6804 96.8 76.8 94.9196 76.8 92.6C76.8 90.2804 78.6804 88.4 81 88.4C83.3196 88.4 85.2 90.2804 85.2 92.6ZM81 59C78.6804 59 76.8 60.8804 76.8 63.2V75.8C76.8 78.1196 78.6804 80 81 80C83.3196 80 85.2 78.1196 85.2 75.8V63.2C85.2 60.8804 83.3196 59 81 59Z" fill="#D0D5DD"/>
</svg>
