<svg width="160" height="160" viewBox="0 0 160 160" fill="none" xmlns="http://www.w3.org/2000/svg">
<circle cx="80" cy="80" r="80" fill="#F7F9FC"/>
<path d="M93.3025 79.5791C85.6384 71.9466 86.3449 59.2444 94.7969 52.5019C92.4295 50.2811 89.4789 48.7173 86.3469 47.8879C85.6834 47.712 85.0135 47.5564 84.3298 47.4885C84.2178 47.4742 84.1058 47.4598 83.9938 47.4459C83.9542 47.441 83.9458 47.4509 83.9364 47.4261C83.9304 47.2091 83.9403 46.9822 83.9364 46.7632C83.9364 46.2439 83.9364 45.7251 83.9364 45.2058C83.9364 45.1781 83.9294 45.1395 83.9364 45.1122C83.9398 45.0978 83.9547 45.0835 83.9631 45.0711C85.0066 43.5802 85.1305 41.5274 84.1578 39.9696C82.7497 37.618 79.5018 37.0095 77.3494 38.7239C75.6653 40.0122 75.0925 42.4668 76.0359 44.366C76.1607 44.6296 76.3228 44.8768 76.4947 45.1102C76.4992 45.8837 76.4922 46.6655 76.4947 47.439C76.0626 47.4975 75.6127 47.5321 75.1822 47.6223C74.7863 47.7051 74.3928 47.7987 74.0024 47.9033C66.5969 49.8708 61.7739 55.3598 59.5437 62.5453C58.7866 64.9137 58.4705 67.3877 58.2792 69.8587C58.029 72.6943 57.8476 75.5399 57.4136 78.3552C56.8795 81.4624 56.2725 84.6608 54.7246 87.4429C53.9452 88.7777 52.925 90.0794 51.4802 90.721C50.7949 91.0178 50.1513 91.382 49.583 91.8705C48.3854 92.8675 47.6754 94.3713 47.6 95.9221C47.5242 97.4462 47.8557 99.3256 49.1113 100.317C49.7901 100.827 50.6542 100.899 51.4747 100.924C53.4096 100.977 55.3454 101.011 57.2813 101.032C61.1704 101.055 65.0589 101.029 68.948 101.035C80.3367 101.025 91.7254 101.052 103.114 101.031C105.049 101.009 106.984 100.97 108.919 100.918C110.804 100.921 111.93 100.261 112.5 98.3802C112.971 96.8145 112.906 95.0451 112.162 93.5735C111.656 92.588 110.839 91.7843 109.894 91.217C109.573 91.0238 109.237 90.8662 108.894 90.7166C107.382 90.0377 106.333 88.6484 105.544 87.2368C105.127 86.4742 104.788 85.6705 104.501 84.8515C104.485 84.8233 104.498 84.8381 104.473 84.8302C104.3 84.8054 104.125 84.801 103.952 84.7747C99.9524 84.299 96.1416 82.4345 93.303 79.5791C91.6327 77.9088 94.9733 81.2493 93.303 79.5791H93.3025Z" fill="#D0D5DD"/>
<path d="M70.8723 103.88C70.8723 108.045 75.0443 111.467 80.1914 111.467C85.3385 111.467 89.5104 108.045 89.5104 103.88H70.8728H70.8723Z" fill="#D0D5DD"/>
<path d="M116.26 76.797C121.831 71.2257 121.831 62.193 116.26 56.6218C110.689 51.0506 101.656 51.0506 96.0849 56.6218C90.5137 62.193 90.5137 71.2257 96.0849 76.797C101.656 82.3682 110.689 82.3682 116.26 76.797Z" fill="#98A2B3"/>
<path d="M106.255 73.321C103.065 73.321 101.194 70.8595 101.194 66.7044C101.194 62.4706 103.084 60.0681 106.255 60.0681C109.445 60.0681 111.316 62.5296 111.316 66.7044C111.316 70.9186 109.425 73.321 106.255 73.321ZM106.255 71.1943C107.85 71.1943 108.716 69.5992 108.716 66.7044C108.716 63.8096 107.83 62.1949 106.255 62.1949C104.64 62.1949 103.774 63.79 103.774 66.7044C103.774 69.5598 104.66 71.1943 106.255 71.1943Z" fill="#F9FAFB"/>
</svg>
