<svg width="80" height="75" viewBox="0 0 80 75" fill="none" xmlns="http://www.w3.org/2000/svg">
<path d="M46.3025 42.5791C38.6384 34.9466 39.3449 22.2444 47.7969 15.5019C45.4295 13.2811 42.4789 11.7173 39.3469 10.8879C38.6834 10.712 38.0135 10.5564 37.3298 10.4885C37.2178 10.4742 37.1058 10.4598 36.9938 10.4459C36.9542 10.441 36.9458 10.4509 36.9364 10.4261C36.9304 10.2091 36.9403 9.98216 36.9364 9.76315C36.9364 9.24389 36.9364 8.72511 36.9364 8.20584C36.9364 8.1781 36.9294 8.13945 36.9364 8.1122C36.9398 8.09783 36.9547 8.08346 36.9631 8.07107C38.0066 6.58016 38.1305 4.52737 37.1578 2.96957C35.7497 0.618001 32.5018 0.00954682 30.3494 1.72392C28.6653 3.01218 28.0925 5.46681 29.0359 7.366C29.1607 7.6296 29.3228 7.87684 29.4947 8.11022C29.4992 8.88367 29.4922 9.66554 29.4947 10.439C29.0626 10.4975 28.6127 10.5321 28.1822 10.6223C27.7863 10.7051 27.3928 10.7987 27.0024 10.9033C19.5969 12.8708 14.7739 18.3598 12.5437 25.5453C11.7866 27.9137 11.4705 30.3877 11.2792 32.8587C11.029 35.6943 10.8476 38.5399 10.4136 41.3552C9.87947 44.4624 9.2725 47.6608 7.72461 50.4429C6.94521 51.7777 5.92501 53.0794 4.48018 53.721C3.79492 54.0178 3.15129 54.382 2.58297 54.8705C1.38539 55.8675 0.675357 57.3713 0.600043 58.9221C0.524234 60.4462 0.855713 62.3256 2.11127 63.3171C2.79008 63.8274 3.65421 63.8993 4.47473 63.9235C6.40959 63.9766 8.34545 64.0112 10.2813 64.0316C14.1704 64.0548 18.0589 64.0291 21.948 64.035C33.3367 64.0251 44.7254 64.0524 56.1136 64.0306C58.0489 64.0088 59.9838 63.9701 61.9187 63.9176C63.804 63.9206 64.9297 63.2611 65.4995 61.3802C65.9712 59.8145 65.9063 58.0451 65.1621 56.5735C64.6557 55.588 63.8392 54.7843 62.8938 54.217C62.5727 54.0238 62.2368 53.8662 61.8939 53.7166C60.3822 53.0377 59.3332 51.6484 58.5439 50.2368C58.1272 49.4742 57.7883 48.6705 57.5009 47.8515C57.4851 47.8233 57.498 47.8381 57.4727 47.8302C57.3003 47.8054 57.1254 47.801 56.9519 47.7747C52.9524 47.299 49.1416 45.4345 46.303 42.5791C44.6327 40.9088 47.9733 44.2493 46.303 42.5791H46.3025Z" fill="#D0D5DD"/>
<path d="M23.8723 66.8796C23.8723 71.0451 28.0443 74.4675 33.1914 74.4675C38.3385 74.4675 42.5104 71.0446 42.5104 66.8796H23.8728H23.8723Z" fill="#D0D5DD"/>
<path d="M69.26 39.797C74.8312 34.2257 74.8312 25.193 69.26 19.6218C63.6888 14.0506 54.6561 14.0506 49.0849 19.6218C43.5137 25.193 43.5137 34.2257 49.0849 39.797C54.6561 45.3682 63.6888 45.3682 69.26 39.797Z" fill="#98A2B3"/>
<path d="M59.2548 36.321C56.0646 36.321 54.1938 33.8595 54.1938 29.7044C54.1938 25.4706 56.0843 23.0681 59.2548 23.0681C62.4449 23.0681 64.3157 25.5296 64.3157 29.7044C64.3157 33.9186 62.4252 36.321 59.2548 36.321ZM59.2548 34.1943C60.8498 34.1943 61.7163 32.5992 61.7163 29.7044C61.7163 26.8096 60.8302 25.1949 59.2548 25.1949C57.64 25.1949 56.7735 26.79 56.7735 29.7044C56.7735 32.5598 57.6597 34.1943 59.2548 34.1943Z" fill="#F9FAFB"/>
</svg>