<svg width="277" height="130" viewBox="0 0 277 130" fill="none" xmlns="http://www.w3.org/2000/svg">
<rect width="277" height="130" rx="4" fill="#F0F2F5"/>
<path fill-rule="evenodd" clip-rule="evenodd" d="M125.225 52.3423C124.678 51.8497 123.835 51.894 123.342 52.4414C122.85 52.9887 122.894 53.8318 123.441 54.3244L149 77.3272V77.3333H149.007L150.108 78.3244C150.655 78.8171 151.498 78.7727 151.991 78.2253C152.484 77.678 152.439 76.8349 151.892 76.3423L151.603 76.0823C152.06 75.5117 152.333 74.7879 152.333 74V57.3333C152.333 55.1242 150.543 53.3333 148.333 53.3333H126.333V53.3395L125.225 52.3423ZM129.289 56L131.471 57.9635C131.658 57.9006 131.858 57.8665 132.067 57.8665C133.097 57.8665 133.933 58.7023 133.933 59.7332C133.933 59.8727 133.918 60.0087 133.889 60.1395L137.274 63.1861L138.884 60.6104C139.242 60.0378 139.881 59.7031 140.555 59.7352C141.23 59.7672 141.834 60.161 142.136 60.7649L146.803 70.0983C147.066 70.6252 147.064 71.2423 146.805 71.764L149.604 74.2829C149.644 74.1971 149.667 74.1012 149.667 74V57.3333C149.667 56.597 149.07 56 148.333 56H129.289ZM130.852 65.4544L128.53 70.0983C128.241 70.6769 128.272 71.3641 128.612 71.9144C128.952 72.4648 129.553 72.7997 130.2 72.7997H139.014L130.852 65.4544ZM125.667 59.3333C125.667 58.597 125.07 58 124.333 58C123.597 58 123 58.597 123 59.3333V73.3333C123 75.5425 124.791 77.3333 127 77.3333H142.552C143.288 77.3333 143.885 76.7364 143.885 76C143.885 75.2636 143.288 74.6667 142.552 74.6667H127C126.264 74.6667 125.667 74.0697 125.667 73.3333V59.3333Z" fill="#98A2B3"/>
</svg>
